<svg
    viewBox="0 0 45 45"
    width="40"
    height="40"
    xmlns="http://www.w3.org/2000/svg">
    <g fill="#FFF">
        <path
            d="M22.8 1.35c11.847 0 21.45 9.603 21.45 21.45S34.647 44.25 22.8 44.25 1.35 34.647 1.35 22.8 10.953 1.35 22.8 1.35zm0 1.3c-11.129 0-20.15 9.021-20.15 20.15 0 11.129 9.021 20.15 20.15 20.15 11.129 0 20.15-9.021 20.15-20.15 0-11.129-9.021-20.15-20.15-20.15z"
            opacity=".5"
        />
        <path d="M22.8.7c12.205 0 22.1 9.895 22.1 22.1 0 12.205-9.895 22.1-22.1 22.1C10.595 44.9.7 35.005.7 22.8a1.3 1.3 0 112.6 0c0 10.77 8.73 19.5 19.5 19.5s19.5-8.73 19.5-19.5S33.57 3.3 22.8 3.3a1.3 1.3 0 110-2.6zm8.567 28c.265 0 .485.194.526.447l.007.087v2.133a.536.536 0 01-.447.526l-.086.007h-2.133a.533.533 0 01-.087-1.06l.087-.006h.846l-1.223-1.223a.533.533 0 01.68-.816l.074.062 1.223 1.223v-.846c0-.295.238-.533.533-.533zm-17.134 0c.265 0 .485.194.526.447l.007.087v.846l1.223-1.223a.533.533 0 01.816.68l-.062.074-1.223 1.223h.846a.533.533 0 01.087 1.059l-.087.007h-2.133a.536.536 0 01-.526-.447l-.007-.086v-2.133c0-.295.239-.533.533-.533zM22.8 16.936c4.929 0 8.802 5.328 8.964 5.555a.532.532 0 010 .62l-.221.294c-.905 1.158-4.418 5.261-8.743 5.261-4.929 0-8.802-5.328-8.964-5.555a.532.532 0 010-.62l.221-.294c.905-1.158 4.418-5.261 8.743-5.261zm0 2.133a3.737 3.737 0 00-3.732 3.732 3.737 3.737 0 003.732 3.732 3.737 3.737 0 003.732-3.732 3.737 3.737 0 00-3.732-3.732zm0 1.066a2.669 2.669 0 012.666 2.666 2.669 2.669 0 01-2.666 2.666 2.669 2.669 0 01-2.666-2.666 2.669 2.669 0 012.666-2.666zm0 1.066c-.882 0-1.6.718-1.6 1.6 0 .882.718 1.6 1.6 1.6.882 0 1.6-.718 1.6-1.6 0-.882-.718-1.6-1.6-1.6zm0 1.067a.534.534 0 11-.001 1.068.534.534 0 01.001-1.068zm6.434-8.567h2.133a.532.532 0 01.528.464l.005.07v2.132a.533.533 0 01-1.06.087l-.006-.087v-.846l-1.223 1.223a.533.533 0 01-.816-.68l.062-.074 1.223-1.223h-.846a.533.533 0 01-.087-1.059l.087-.007h2.133-2.133zm-15 0h2.132a.533.533 0 01.087 1.06l-.087.006h-.846l1.223 1.223a.533.533 0 01-.68.816l-.074-.062-1.223-1.223v.846a.533.533 0 01-1.059.087l-.007-.087v-2.133c0-.262.193-.484.447-.526l.086-.007h2.133-2.133z" />
    </g>
</svg>